*********************************************************************
 
Jeddo Habibi 2012 Arabic DVDRip X264 ACC - alrmothe

*********************************************************************

TiTLE: Jeddo Habibi
YEAR:2012
GENRE : Drama | Romance | Comedy
elcinema URL : http://www.elcinema.com/work/wk1411403/
SIZE : 2.23 GB
Format : mp4 
Overall bit rate:2851 Kbps
Sub: No 
Encoded / Released By:alrmothe
*********************************************************************

Video
Format : AVC
Format/Info : Advanced Video Codec
Format profile : High@L3.0
Runtime: 1h 51min 55sec
bit rate: 2675 Kbps
Width: 720 pixels
Height: 576 pixels
Frame rate: 25 fps
Bit depth : 8 bits
Bits/(Pixel*Frame) : 0.258
Stream size : 2.06 GiB (94%)

Audio: Arabic
Format: ACC
Bit rate: 172 Kbps
Sampling rate: 48.0 KHz
Channel(s): 2 channels
Stream size : 137 MiB (8%)
Language : Arabic

*********************************************************************

Screenshots
 
http://img202.imageshack.us/img202/1796/vlcsnap2013031519h01m51.png 
http://img854.imageshack.us/img854/9733/vlcsnap2013031518h59m31.png 
http://img22.imageshack.us/img22/7990/jeddohabibi.png